<svg width="13" height="15" viewBox="0 0 13 15" fill="none" xmlns="http://www.w3.org/2000/svg">
<path d="M12 1C12.2652 1 12.5196 1.10536 12.7071 1.29289C12.8946 1.48043 13 1.73478 13 2V3C13 3.26522 12.8946 3.51957 12.7071 3.70711C12.5196 3.89464 12.2652 4 12 4H11.5L11.5 13C11.5 13.5304 11.2893 14.0391 10.9142 14.4142C10.5391 14.7893 10.0304 15 9.5 15L3.5 15C2.96957 15 2.46086 14.7893 2.08579 14.4142C1.71071 14.0391 1.5 13.5304 1.5 13L1.5 4H1C0.734783 4 0.48043 3.89464 0.292893 3.70711C0.105357 3.51957 0 3.26522 0 3V2C0 1.73478 0.105357 1.48043 0.292893 1.29289C0.48043 1.10536 0.734783 1 1 1L4.5 1C4.5 0.734784 4.60536 0.48043 4.79289 0.292893C4.98043 0.105357 5.23478 0 5.5 0L7.5 0C7.76522 0 8.01957 0.105357 8.20711 0.292893C8.39464 0.48043 8.5 0.734784 8.5 1L12 1ZM9 5C8.86739 5 8.74021 5.05268 8.64645 5.14645C8.55268 5.24021 8.5 5.36739 8.5 5.5L8.5 12.5C8.5 12.6326 8.55268 12.7598 8.64645 12.8536C8.74021 12.9473 8.86739 13 9 13C9.13261 13 9.25979 12.9473 9.35355 12.8536C9.44732 12.7598 9.5 12.6326 9.5 12.5L9.5 5.5C9.5 5.36739 9.44732 5.24021 9.35355 5.14645C9.25979 5.05268 9.13261 5 9 5ZM6.5 5C6.36739 5 6.24021 5.05268 6.14645 5.14645C6.05268 5.24021 6 5.36739 6 5.5L6 12.5C6 12.6326 6.05268 12.7598 6.14645 12.8536C6.24021 12.9473 6.36739 13 6.5 13C6.63261 13 6.75979 12.9473 6.85355 12.8536C6.94732 12.7598 7 12.6326 7 12.5L7 5.5C7 5.36739 6.94732 5.24021 6.85355 5.14645C6.75979 5.05268 6.63261 5 6.5 5ZM3.5 5.5L3.5 12.5C3.5 12.6326 3.55268 12.7598 3.64645 12.8536C3.74021 12.9473 3.86739 13 4 13C4.13261 13 4.25979 12.9473 4.35355 12.8536C4.44732 12.7598 4.5 12.6326 4.5 12.5L4.5 5.5C4.5 5.36739 4.44732 5.24021 4.35355 5.14645C4.25979 5.05268 4.13261 5 4 5C3.86739 5 3.74021 5.05268 3.64645 5.14645C3.55268 5.24021 3.5 5.36739 3.5 5.5Z" fill="#0871B3"/>
</svg>
