<svg width="15" height="15" viewBox="0 0 15 15" fill="none" xmlns="http://www.w3.org/2000/svg">
<path d="M12.8897 0.479766L13.032 0.337474C13.1391 0.230437 13.2662 0.145543 13.4061 0.0876395C13.546 0.0297356 13.6959 -4.42894e-05 13.8474 4.94387e-08C13.9988 4.43883e-05 14.1487 0.0299121 14.2886 0.0878979C14.4284 0.145884 14.5555 0.230852 14.6625 0.337952C14.7696 0.445051 14.8545 0.572184 14.9124 0.712093C14.9703 0.852001 15 1.00194 15 1.15336C15 1.30478 14.9701 1.4547 14.9121 1.59458C14.8541 1.73445 14.7692 1.86154 14.6621 1.96857L14.5198 2.10991C14.7632 2.3829 14.8929 2.73866 14.8825 3.10426C14.872 3.46986 14.7221 3.8176 14.4634 4.07621L4.63513 13.9058C4.57369 13.9669 4.49677 14.0101 4.41263 14.0309L0.592846 14.9859C0.512909 15.0058 0.429183 15.0046 0.349805 14.9826C0.270427 14.9606 0.198098 14.9184 0.139849 14.8601C0.0815991 14.8019 0.0394107 14.7296 0.0173845 14.6502C-0.00464168 14.5708 -0.00575648 14.4871 0.0141485 14.4071L0.969094 10.5872C0.989988 10.5034 1.03322 10.4269 1.09419 10.3657L10.3018 1.1578C10.2097 1.09298 10.0977 1.0628 9.98548 1.07259C9.87329 1.08238 9.76818 1.1315 9.6887 1.21128L6.54502 4.35601C6.50063 4.40041 6.44793 4.43562 6.38992 4.45965C6.33192 4.48368 6.26975 4.49604 6.20697 4.49604C6.14419 4.49604 6.08202 4.48368 6.02402 4.45965C5.96602 4.43562 5.91331 4.40041 5.86892 4.35601C5.82453 4.31162 5.78931 4.25891 5.76529 4.20091C5.74126 4.1429 5.72889 4.08074 5.72889 4.01795C5.72889 3.95517 5.74126 3.893 5.76529 3.83499C5.78931 3.77699 5.82453 3.72428 5.86892 3.67989L9.01451 0.536109C9.27328 0.277325 9.62127 0.127399 9.98709 0.117099C10.3529 0.106799 10.7088 0.236907 10.9817 0.48072C11.2441 0.246215 11.5836 0.116504 11.9355 0.116328C12.2874 0.116152 12.6271 0.245523 12.8897 0.479766Z" fill="#0871B3"/>
</svg>
